<svg width="585" height="149" viewBox="0 0 585 149" fill="none" xmlns="http://www.w3.org/2000/svg">
<g id="Hero v1 for SVG Export">
<g id="Group 2">
<path id="Hero" d="M50.776 140.528H50.136C22.872 140.528 8.408 119.152 8.408 99.312C8.408 83.952 17.112 69.488 35.544 66.672C36.952 66.416 38.36 66.288 39.768 66.288C50.776 66.288 60.632 72.816 61.656 83.568L61.784 85.872C61.784 96.88 53.592 102.768 45.4 102.768C39.512 102.768 33.496 99.568 30.68 93.04C29.784 91.12 29.4 89.072 29.4 86.896C29.4 82.8 30.936 78.576 33.88 75.632C27.352 77.936 24.152 84.08 24.152 90.608C24.152 91.76 24.28 92.784 24.408 93.936C26.2 104.688 35.928 110.96 45.784 110.96C49.624 110.96 53.592 109.936 57.048 107.76C67.8 100.976 72.664 83.696 72.664 66.928C72.664 60.912 72.024 55.152 70.872 49.776C63.96 55.664 57.432 57.84 51.672 57.84C41.944 57.84 34.648 51.312 32.728 45.168C31.96 42.864 31.704 40.56 31.704 38.512C31.704 26.736 42.2 18.8 54.104 18.8C62.296 18.8 71.256 22.512 77.912 31.088C87.384 24.304 99.544 15.088 112.088 15.088H112.856C122.2 15.216 129.624 20.336 132.568 27.12C133.592 29.552 134.104 32.112 134.104 34.8C134.232 53.488 111.96 61.04 104.024 48.368C107.864 47.6 109.272 37.104 99.288 36.208C94.552 35.824 88.92 37.744 83.16 41.2C88.664 51.952 91.992 65.904 92.76 78.064C99.16 77.168 105.816 74.864 110.808 73.584L111.96 73.456C115.672 73.456 117.464 78.576 117.464 84.08C117.464 89.968 115.288 95.984 110.808 95.984H110.168C104.408 95.216 97.368 92.784 93.016 91.76C91.352 116.72 77.656 140.144 50.776 140.528ZM62.68 37.744C63.96 37.744 65.368 37.616 66.904 37.232C63.832 30.704 59.224 28.4 55.896 28.4C53.336 28.4 51.544 29.68 51.544 31.472C51.544 32.112 51.8 32.752 52.312 33.52C53.848 35.44 57.56 37.744 62.68 37.744ZM138.816 119.664C116.16 120.048 113.984 100.464 114.752 86.896C115.264 79.728 117.056 74.608 122.304 73.2C121.152 62.576 129.984 55.536 140.224 55.536C151.744 55.664 161.984 61.168 161.344 83.44C163.52 83.696 167.232 81.264 167.872 78.576C168.256 76.656 173.888 77.296 173.76 79.6C173.632 86 167.232 93.04 160.832 93.68C159.296 106.992 155.072 119.28 138.816 119.664ZM140.608 66.16C138.048 66.928 136.128 81.52 144.192 82.16C144.96 69.36 142.144 65.776 140.608 66.16ZM137.536 91.504C136.256 108.016 143.168 106.608 143.424 93.04C140.992 92.784 139.328 92.272 137.536 91.504ZM183.476 119.664C160.82 120.048 158.644 100.464 159.412 86.896C159.924 79.728 161.716 74.608 166.964 73.2C165.812 62.576 174.644 55.536 184.884 55.536C196.404 55.664 206.644 61.168 206.004 83.44C208.18 83.696 211.892 81.264 212.532 78.576C212.916 76.656 218.548 77.296 218.42 79.6C218.292 86 211.892 93.04 205.492 93.68C203.956 106.992 199.732 119.28 183.476 119.664ZM185.268 66.16C182.708 66.928 180.788 81.52 188.852 82.16C189.62 69.36 186.804 65.776 185.268 66.16ZM182.196 91.504C180.916 108.016 187.828 106.608 188.084 93.04C185.652 92.784 183.988 92.272 182.196 91.504ZM271.016 37.104C257.448 37.872 254.632 74.48 255.144 90.864C255.528 101.104 260.008 93.424 262.312 79.856C262.696 77.808 267.816 78.32 267.304 80.88C264.232 95.856 262.056 117.488 250.792 117.488C236.584 117.488 237.992 98.544 237.992 92.528C237.992 92.144 237.224 92.016 237.096 92.528C235.304 102.128 232.104 118.896 218.024 117.616C193.192 115.44 202.152 51.696 230.952 58.48C233.384 58.992 236.328 61.296 237.864 65.52C237.992 52.464 238.888 42.48 241.32 36.08C247.72 18.672 270.632 21.872 271.016 37.104ZM224.424 94.832C228.392 98.032 235.432 66.8 231.464 67.184C225.832 67.568 221.096 92.016 224.424 94.832ZM276.212 53.36C270.324 53.36 265.588 48.624 265.588 42.736C265.588 36.976 270.324 32.24 276.212 32.24C281.972 32.24 286.708 36.976 286.708 42.736C286.708 48.624 281.972 53.36 276.212 53.36ZM272.244 117.488C251.508 117.488 255.476 70.768 260.724 59.12C263.924 52.08 279.796 54.256 281.076 62.448C275.444 69.36 272.5 94.448 277.748 95.6C279.796 95.984 282.996 89.328 284.66 79.856C285.044 77.808 290.164 78.32 289.652 80.88C286.708 95.856 283.38 117.488 272.244 117.488ZM299.518 117.616C285.182 117.104 277.758 100.208 278.782 85.36C279.806 71.152 288.382 57.584 302.334 57.456C311.678 57.328 319.998 64.496 317.054 78.32C314.622 90.608 304.254 94.576 299.902 88.048C299.646 87.664 299.262 87.28 299.39 87.792C299.518 93.296 304.382 97.136 308.35 96.88C314.11 96.496 318.206 89.712 320.126 80.112C320.51 78.448 324.862 79.088 324.606 80.88C323.198 94.192 317.438 118.384 299.518 117.616ZM305.022 65.904C301.694 67.44 299.134 79.216 300.542 80.496C303.614 83.184 309.63 63.6 305.022 65.904ZM359.111 140.528H358.471C331.207 140.528 316.743 119.152 316.743 99.312C316.743 83.952 325.447 69.488 343.879 66.672C345.287 66.416 346.695 66.288 348.103 66.288C359.111 66.288 368.967 72.816 369.991 83.568L370.119 85.872C370.119 96.88 361.927 102.768 353.735 102.768C347.847 102.768 341.831 99.568 339.015 93.04C338.119 91.12 337.735 89.072 337.735 86.896C337.735 82.8 339.271 78.576 342.215 75.632C335.687 77.936 332.487 84.08 332.487 90.608C332.487 91.76 332.615 92.784 332.743 93.936C334.535 104.688 344.263 110.96 354.119 110.96C357.959 110.96 361.927 109.936 365.383 107.76C376.135 100.976 380.999 83.696 380.999 66.928C380.999 60.912 380.359 55.152 379.207 49.776C372.295 55.664 365.767 57.84 360.007 57.84C350.279 57.84 342.983 51.312 341.063 45.168C340.295 42.864 340.039 40.56 340.039 38.512C340.039 26.736 350.535 18.8 362.439 18.8C370.631 18.8 379.591 22.512 386.247 31.088C395.719 24.304 407.879 15.088 420.423 15.088H421.191C430.535 15.216 437.959 20.336 440.903 27.12C441.927 29.552 442.439 32.112 442.439 34.8C442.567 53.488 420.295 61.04 412.359 48.368C416.199 47.6 417.607 37.104 407.623 36.208C402.887 35.824 397.255 37.744 391.495 41.2C396.999 51.952 400.327 65.904 401.095 78.064C407.495 77.168 414.151 74.864 419.143 73.584L420.295 73.456C424.007 73.456 425.799 78.576 425.799 84.08C425.799 89.968 423.623 95.984 419.143 95.984H418.503C412.743 95.216 405.703 92.784 401.351 91.76C399.687 116.72 385.991 140.144 359.111 140.528ZM371.015 37.744C372.295 37.744 373.703 37.616 375.239 37.232C372.167 30.704 367.559 28.4 364.231 28.4C361.671 28.4 359.879 29.68 359.879 31.472C359.879 32.112 360.135 32.752 360.647 33.52C362.183 35.44 365.895 37.744 371.015 37.744ZM444.463 117.616C430.127 117.104 422.703 100.208 423.727 85.36C424.751 71.152 433.327 57.584 447.279 57.456C456.623 57.328 464.943 64.496 461.999 78.32C459.567 90.608 449.199 94.576 444.847 88.048C444.591 87.664 444.207 87.28 444.335 87.792C444.463 93.296 449.327 97.136 453.295 96.88C459.055 96.496 463.151 89.712 465.071 80.112C465.455 78.448 469.807 79.088 469.551 80.88C468.143 94.192 462.383 118.384 444.463 117.616ZM449.967 65.904C446.639 67.44 444.079 79.216 445.487 80.496C448.559 83.184 454.575 63.6 449.967 65.904ZM480.248 117.616C465.912 117.104 458.488 100.208 459.512 85.36C460.536 71.152 469.112 57.584 483.064 57.456C492.408 57.328 500.728 64.496 497.784 78.32C495.352 90.608 484.984 94.576 480.632 88.048C480.376 87.664 479.992 87.28 480.12 87.792C480.248 93.296 485.112 97.136 489.08 96.88C494.84 96.496 498.936 89.712 500.856 80.112C501.24 78.448 505.592 79.088 505.336 80.88C503.928 94.192 498.168 118.384 480.248 117.616ZM485.752 65.904C482.424 67.44 479.864 79.216 481.272 80.496C484.344 83.184 490.36 63.6 485.752 65.904ZM561.601 37.104C548.033 37.872 545.217 74.48 545.729 90.864C546.113 101.104 550.593 93.424 552.897 79.856C553.281 77.808 558.401 78.32 557.889 80.88C554.817 95.856 552.641 117.488 541.377 117.488C527.169 117.488 528.577 98.544 528.577 92.528C528.577 92.144 527.809 92.016 527.681 92.528C525.889 102.128 522.689 118.896 508.609 117.616C483.777 115.44 492.737 51.696 521.537 58.48C523.969 58.992 526.913 61.296 528.449 65.52C528.577 52.464 529.473 42.48 531.905 36.08C538.305 18.672 561.217 21.872 561.601 37.104ZM515.009 94.832C518.977 98.032 526.017 66.8 522.049 67.184C516.417 67.568 511.681 92.016 515.009 94.832Z" fill="#590202"/>
<path id="Hero_2" d="M47.776 137.528H47.136C19.872 137.528 5.408 116.152 5.408 96.312C5.408 80.952 14.112 66.488 32.544 63.672C33.952 63.416 35.36 63.288 36.768 63.288C47.776 63.288 57.632 69.816 58.656 80.568L58.784 82.872C58.784 93.88 50.592 99.768 42.4 99.768C36.512 99.768 30.496 96.568 27.68 90.04C26.784 88.12 26.4 86.072 26.4 83.896C26.4 79.8 27.936 75.576 30.88 72.632C24.352 74.936 21.152 81.08 21.152 87.608C21.152 88.76 21.28 89.784 21.408 90.936C23.2 101.688 32.928 107.96 42.784 107.96C46.624 107.96 50.592 106.936 54.048 104.76C64.8 97.976 69.664 80.696 69.664 63.928C69.664 57.912 69.024 52.152 67.872 46.776C60.96 52.664 54.432 54.84 48.672 54.84C38.944 54.84 31.648 48.312 29.728 42.168C28.96 39.864 28.704 37.56 28.704 35.512C28.704 23.736 39.2 15.8 51.104 15.8C59.296 15.8 68.256 19.512 74.912 28.088C84.384 21.304 96.544 12.088 109.088 12.088H109.856C119.2 12.216 126.624 17.336 129.568 24.12C130.592 26.552 131.104 29.112 131.104 31.8C131.232 50.488 108.96 58.04 101.024 45.368C104.864 44.6 106.272 34.104 96.288 33.208C91.552 32.824 85.92 34.744 80.16 38.2C85.664 48.952 88.992 62.904 89.76 75.064C96.16 74.168 102.816 71.864 107.808 70.584L108.96 70.456C112.672 70.456 114.464 75.576 114.464 81.08C114.464 86.968 112.288 92.984 107.808 92.984H107.168C101.408 92.216 94.368 89.784 90.016 88.76C88.352 113.72 74.656 137.144 47.776 137.528ZM59.68 34.744C60.96 34.744 62.368 34.616 63.904 34.232C60.832 27.704 56.224 25.4 52.896 25.4C50.336 25.4 48.544 26.68 48.544 28.472C48.544 29.112 48.8 29.752 49.312 30.52C50.848 32.44 54.56 34.744 59.68 34.744ZM135.816 116.664C113.16 117.048 110.984 97.464 111.752 83.896C112.264 76.728 114.056 71.608 119.304 70.2C118.152 59.576 126.984 52.536 137.224 52.536C148.744 52.664 158.984 58.168 158.344 80.44C160.52 80.696 164.232 78.264 164.872 75.576C165.256 73.656 170.888 74.296 170.76 76.6C170.632 83 164.232 90.04 157.832 90.68C156.296 103.992 152.072 116.28 135.816 116.664ZM137.608 63.16C135.048 63.928 133.128 78.52 141.192 79.16C141.96 66.36 139.144 62.776 137.608 63.16ZM134.536 88.504C133.256 105.016 140.168 103.608 140.424 90.04C137.992 89.784 136.328 89.272 134.536 88.504ZM180.476 116.664C157.82 117.048 155.644 97.464 156.412 83.896C156.924 76.728 158.716 71.608 163.964 70.2C162.812 59.576 171.644 52.536 181.884 52.536C193.404 52.664 203.644 58.168 203.004 80.44C205.18 80.696 208.892 78.264 209.532 75.576C209.916 73.656 215.548 74.296 215.42 76.6C215.292 83 208.892 90.04 202.492 90.68C200.956 103.992 196.732 116.28 180.476 116.664ZM182.268 63.16C179.708 63.928 177.788 78.52 185.852 79.16C186.62 66.36 183.804 62.776 182.268 63.16ZM179.196 88.504C177.916 105.016 184.828 103.608 185.084 90.04C182.652 89.784 180.988 89.272 179.196 88.504ZM268.016 34.104C254.448 34.872 251.632 71.48 252.144 87.864C252.528 98.104 257.008 90.424 259.312 76.856C259.696 74.808 264.816 75.32 264.304 77.88C261.232 92.856 259.056 114.488 247.792 114.488C233.584 114.488 234.992 95.544 234.992 89.528C234.992 89.144 234.224 89.016 234.096 89.528C232.304 99.128 229.104 115.896 215.024 114.616C190.192 112.44 199.152 48.696 227.952 55.48C230.384 55.992 233.328 58.296 234.864 62.52C234.992 49.464 235.888 39.48 238.32 33.08C244.72 15.672 267.632 18.872 268.016 34.104ZM221.424 91.832C225.392 95.032 232.432 63.8 228.464 64.184C222.832 64.568 218.096 89.016 221.424 91.832ZM273.212 50.36C267.324 50.36 262.588 45.624 262.588 39.736C262.588 33.976 267.324 29.24 273.212 29.24C278.972 29.24 283.708 33.976 283.708 39.736C283.708 45.624 278.972 50.36 273.212 50.36ZM269.244 114.488C248.508 114.488 252.476 67.768 257.724 56.12C260.924 49.08 276.796 51.256 278.076 59.448C272.444 66.36 269.5 91.448 274.748 92.6C276.796 92.984 279.996 86.328 281.66 76.856C282.044 74.808 287.164 75.32 286.652 77.88C283.708 92.856 280.38 114.488 269.244 114.488ZM296.518 114.616C282.182 114.104 274.758 97.208 275.782 82.36C276.806 68.152 285.382 54.584 299.334 54.456C308.678 54.328 316.998 61.496 314.054 75.32C311.622 87.608 301.254 91.576 296.902 85.048C296.646 84.664 296.262 84.28 296.39 84.792C296.518 90.296 301.382 94.136 305.35 93.88C311.11 93.496 315.206 86.712 317.126 77.112C317.51 75.448 321.862 76.088 321.606 77.88C320.198 91.192 314.438 115.384 296.518 114.616ZM302.022 62.904C298.694 64.44 296.134 76.216 297.542 77.496C300.614 80.184 306.63 60.6 302.022 62.904ZM356.111 137.528H355.471C328.207 137.528 313.743 116.152 313.743 96.312C313.743 80.952 322.447 66.488 340.879 63.672C342.287 63.416 343.695 63.288 345.103 63.288C356.111 63.288 365.967 69.816 366.991 80.568L367.119 82.872C367.119 93.88 358.927 99.768 350.735 99.768C344.847 99.768 338.831 96.568 336.015 90.04C335.119 88.12 334.735 86.072 334.735 83.896C334.735 79.8 336.271 75.576 339.215 72.632C332.687 74.936 329.487 81.08 329.487 87.608C329.487 88.76 329.615 89.784 329.743 90.936C331.535 101.688 341.263 107.96 351.119 107.96C354.959 107.96 358.927 106.936 362.383 104.76C373.135 97.976 377.999 80.696 377.999 63.928C377.999 57.912 377.359 52.152 376.207 46.776C369.295 52.664 362.767 54.84 357.007 54.84C347.279 54.84 339.983 48.312 338.063 42.168C337.295 39.864 337.039 37.56 337.039 35.512C337.039 23.736 347.535 15.8 359.439 15.8C367.631 15.8 376.591 19.512 383.247 28.088C392.719 21.304 404.879 12.088 417.423 12.088H418.191C427.535 12.216 434.959 17.336 437.903 24.12C438.927 26.552 439.439 29.112 439.439 31.8C439.567 50.488 417.295 58.04 409.359 45.368C413.199 44.6 414.607 34.104 404.623 33.208C399.887 32.824 394.255 34.744 388.495 38.2C393.999 48.952 397.327 62.904 398.095 75.064C404.495 74.168 411.151 71.864 416.143 70.584L417.295 70.456C421.007 70.456 422.799 75.576 422.799 81.08C422.799 86.968 420.623 92.984 416.143 92.984H415.503C409.743 92.216 402.703 89.784 398.351 88.76C396.687 113.72 382.991 137.144 356.111 137.528ZM368.015 34.744C369.295 34.744 370.703 34.616 372.239 34.232C369.167 27.704 364.559 25.4 361.231 25.4C358.671 25.4 356.879 26.68 356.879 28.472C356.879 29.112 357.135 29.752 357.647 30.52C359.183 32.44 362.895 34.744 368.015 34.744ZM441.463 114.616C427.127 114.104 419.703 97.208 420.727 82.36C421.751 68.152 430.327 54.584 444.279 54.456C453.623 54.328 461.943 61.496 458.999 75.32C456.567 87.608 446.199 91.576 441.847 85.048C441.591 84.664 441.207 84.28 441.335 84.792C441.463 90.296 446.327 94.136 450.295 93.88C456.055 93.496 460.151 86.712 462.071 77.112C462.455 75.448 466.807 76.088 466.551 77.88C465.143 91.192 459.383 115.384 441.463 114.616ZM446.967 62.904C443.639 64.44 441.079 76.216 442.487 77.496C445.559 80.184 451.575 60.6 446.967 62.904ZM477.248 114.616C462.912 114.104 455.488 97.208 456.512 82.36C457.536 68.152 466.112 54.584 480.064 54.456C489.408 54.328 497.728 61.496 494.784 75.32C492.352 87.608 481.984 91.576 477.632 85.048C477.376 84.664 476.992 84.28 477.12 84.792C477.248 90.296 482.112 94.136 486.08 93.88C491.84 93.496 495.936 86.712 497.856 77.112C498.24 75.448 502.592 76.088 502.336 77.88C500.928 91.192 495.168 115.384 477.248 114.616ZM482.752 62.904C479.424 64.44 476.864 76.216 478.272 77.496C481.344 80.184 487.36 60.6 482.752 62.904ZM558.601 34.104C545.033 34.872 542.217 71.48 542.729 87.864C543.113 98.104 547.593 90.424 549.897 76.856C550.281 74.808 555.401 75.32 554.889 77.88C551.817 92.856 549.641 114.488 538.377 114.488C524.169 114.488 525.577 95.544 525.577 89.528C525.577 89.144 524.809 89.016 524.681 89.528C522.889 99.128 519.689 115.896 505.609 114.616C480.777 112.44 489.737 48.696 518.537 55.48C520.969 55.992 523.913 58.296 525.449 62.52C525.577 49.464 526.473 39.48 528.905 33.08C535.305 15.672 558.217 18.872 558.601 34.104ZM512.009 91.832C515.977 95.032 523.017 63.8 519.049 64.184C513.417 64.568 508.681 89.016 512.009 91.832Z" fill="white"/>
<g id="Group 1">
<path id="Hero_3" d="M45.6608 136.935H45.0208C17.7568 136.935 3.29277 115.559 3.29277 95.7192C3.29277 80.3592 11.9968 65.8952 30.4288 63.0792C31.8368 62.8232 33.2448 62.6952 34.6528 62.6952C45.6608 62.6952 55.5168 69.2232 56.5408 79.9752L56.6688 82.2792C56.6688 93.2872 48.4768 99.1752 40.2848 99.1752C34.3968 99.1752 28.3808 95.9752 25.5648 89.4472C24.6688 87.5272 24.2848 85.4792 24.2848 83.3032C24.2848 79.2072 25.8208 74.9832 28.7648 72.0392C22.2368 74.3432 19.0368 80.4872 19.0368 87.0152C19.0368 88.1672 19.1648 89.1912 19.2928 90.3432C21.0848 101.095 30.8128 107.367 40.6688 107.367C44.5088 107.367 48.4768 106.343 51.9328 104.167C62.6848 97.3832 67.5488 80.1032 67.5488 63.3352C67.5488 57.3192 66.9088 51.5592 65.7568 46.1832C58.8448 52.0712 52.3168 54.2472 46.5568 54.2472C36.8288 54.2472 29.5328 47.7192 27.6128 41.5752C26.8448 39.2712 26.5888 36.9672 26.5888 34.9192C26.5888 23.1432 37.0848 15.2072 48.9888 15.2072C57.1808 15.2072 66.1408 18.9192 72.7968 27.4952C82.2688 20.7112 94.4288 11.4952 106.973 11.4952H107.741C117.085 11.6232 124.509 16.7432 127.453 23.5272C128.477 25.9592 128.989 28.5192 128.989 31.2072C129.117 49.8952 106.845 57.4472 98.9088 44.7752C102.749 44.0072 104.157 33.5112 94.1728 32.6152C89.4368 32.2312 83.8048 34.1512 78.0448 37.6072C83.5488 48.3592 86.8768 62.3112 87.6448 74.4712C94.0448 73.5752 100.701 71.2712 105.693 69.9912L106.845 69.8632C110.557 69.8632 112.349 74.9832 112.349 80.4872C112.349 86.3752 110.173 92.3912 105.693 92.3912H105.053C99.2928 91.6232 92.2528 89.1912 87.9008 88.1672C86.2368 113.127 72.5408 136.551 45.6608 136.935ZM57.5648 34.1512C58.8448 34.1512 60.2528 34.0232 61.7888 33.6392C58.7168 27.1112 54.1088 24.8072 50.7808 24.8072C48.2208 24.8072 46.4288 26.0872 46.4288 27.8792C46.4288 28.5192 46.6848 29.1592 47.1968 29.9272C48.7328 31.8472 52.4448 34.1512 57.5648 34.1512ZM133.701 116.071C111.045 116.455 108.869 96.8712 109.637 83.3032C110.149 76.1352 111.941 71.0152 117.189 69.6072C116.037 58.9832 124.869 51.9432 135.109 51.9432C146.629 52.0712 156.869 57.5752 156.229 79.8472C158.405 80.1032 162.117 77.6712 162.757 74.9832C163.141 73.0632 168.773 73.7032 168.645 76.0072C168.517 82.4072 162.117 89.4472 155.717 90.0872C154.181 103.399 149.957 115.687 133.701 116.071ZM135.493 62.5672C132.933 63.3352 131.013 77.9272 139.077 78.5672C139.845 65.7672 137.029 62.1832 135.493 62.5672ZM132.421 87.9112C131.141 104.423 138.053 103.015 138.309 89.4472C135.877 89.1912 134.213 88.6792 132.421 87.9112ZM178.361 116.071C155.705 116.455 153.529 96.8712 154.297 83.3032C154.809 76.1352 156.601 71.0152 161.849 69.6072C160.697 58.9832 169.529 51.9432 179.769 51.9432C191.289 52.0712 201.529 57.5752 200.889 79.8472C203.065 80.1032 206.777 77.6712 207.417 74.9832C207.801 73.0632 213.433 73.7032 213.305 76.0072C213.177 82.4072 206.777 89.4472 200.377 90.0872C198.841 103.399 194.617 115.687 178.361 116.071ZM180.153 62.5672C177.593 63.3352 175.673 77.9272 183.737 78.5672C184.505 65.7672 181.689 62.1832 180.153 62.5672ZM177.081 87.9112C175.801 104.423 182.713 103.015 182.969 89.4472C180.537 89.1912 178.873 88.6792 177.081 87.9112ZM265.901 33.5112C252.333 34.2792 249.517 70.8872 250.029 87.2712C250.413 97.5112 254.893 89.8312 257.197 76.2632C257.581 74.2152 262.701 74.7272 262.189 77.2872C259.117 92.2632 256.941 113.895 245.677 113.895C231.469 113.895 232.877 94.9512 232.877 88.9352C232.877 88.5512 232.109 88.4232 231.981 88.9352C230.189 98.5352 226.989 115.303 212.909 114.023C188.077 111.847 197.037 48.1032 225.837 54.8872C228.269 55.3992 231.213 57.7032 232.749 61.9272C232.877 48.8712 233.773 38.8872 236.205 32.4872C242.605 15.0792 265.517 18.2792 265.901 33.5112ZM219.309 91.2392C223.277 94.4392 230.317 63.2072 226.349 63.5912C220.717 63.9752 215.981 88.4232 219.309 91.2392ZM271.097 49.7672C265.209 49.7672 260.473 45.0312 260.473 39.1432C260.473 33.3832 265.209 28.6472 271.097 28.6472C276.857 28.6472 281.593 33.3832 281.593 39.1432C281.593 45.0312 276.857 49.7672 271.097 49.7672ZM267.129 113.895C246.393 113.895 250.361 67.1752 255.609 55.5272C258.809 48.4872 274.681 50.6632 275.961 58.8552C270.329 65.7672 267.385 90.8552 272.633 92.0072C274.681 92.3912 277.881 85.7352 279.545 76.2632C279.929 74.2152 285.049 74.7272 284.537 77.2872C281.593 92.2632 278.265 113.895 267.129 113.895ZM294.403 114.023C280.067 113.511 272.643 96.6152 273.667 81.7672C274.691 67.5592 283.267 53.9912 297.219 53.8632C306.563 53.7352 314.883 60.9032 311.939 74.7272C309.507 87.0152 299.139 90.9832 294.787 84.4552C294.531 84.0712 294.147 83.6872 294.275 84.1992C294.403 89.7032 299.267 93.5432 303.235 93.2872C308.995 92.9032 313.091 86.1192 315.011 76.5192C315.395 74.8552 319.747 75.4952 319.491 77.2872C318.083 90.5992 312.323 114.791 294.403 114.023ZM299.907 62.3112C296.579 63.8472 294.019 75.6232 295.427 76.9032C298.499 79.5912 304.515 60.0072 299.907 62.3112ZM353.996 136.935H353.356C326.092 136.935 311.628 115.559 311.628 95.7192C311.628 80.3592 320.332 65.8952 338.764 63.0792C340.172 62.8232 341.58 62.6952 342.988 62.6952C353.996 62.6952 363.852 69.2232 364.876 79.9752L365.004 82.2792C365.004 93.2872 356.812 99.1752 348.62 99.1752C342.732 99.1752 336.716 95.9752 333.9 89.4472C333.004 87.5272 332.62 85.4792 332.62 83.3032C332.62 79.2072 334.156 74.9832 337.1 72.0392C330.572 74.3432 327.372 80.4872 327.372 87.0152C327.372 88.1672 327.5 89.1912 327.628 90.3432C329.42 101.095 339.148 107.367 349.004 107.367C352.844 107.367 356.812 106.343 360.268 104.167C371.02 97.3832 375.884 80.1032 375.884 63.3352C375.884 57.3192 375.244 51.5592 374.092 46.1832C367.18 52.0712 360.652 54.2472 354.892 54.2472C345.164 54.2472 337.868 47.7192 335.948 41.5752C335.18 39.2712 334.924 36.9672 334.924 34.9192C334.924 23.1432 345.42 15.2072 357.324 15.2072C365.516 15.2072 374.476 18.9192 381.132 27.4952C390.604 20.7112 402.764 11.4952 415.308 11.4952H416.076C425.42 11.6232 432.844 16.7432 435.788 23.5272C436.812 25.9592 437.324 28.5192 437.324 31.2072C437.452 49.8952 415.18 57.4472 407.244 44.7752C411.084 44.0072 412.492 33.5112 402.508 32.6152C397.772 32.2312 392.14 34.1512 386.38 37.6072C391.884 48.3592 395.212 62.3112 395.98 74.4712C402.38 73.5752 409.036 71.2712 414.028 69.9912L415.18 69.8632C418.892 69.8632 420.684 74.9832 420.684 80.4872C420.684 86.3752 418.508 92.3912 414.028 92.3912H413.388C407.628 91.6232 400.588 89.1912 396.236 88.1672C394.572 113.127 380.876 136.551 353.996 136.935ZM365.9 34.1512C367.18 34.1512 368.588 34.0232 370.124 33.6392C367.052 27.1112 362.444 24.8072 359.116 24.8072C356.556 24.8072 354.764 26.0872 354.764 27.8792C354.764 28.5192 355.02 29.1592 355.532 29.9272C357.068 31.8472 360.78 34.1512 365.9 34.1512ZM439.348 114.023C425.012 113.511 417.588 96.6152 418.612 81.7672C419.636 67.5592 428.212 53.9912 442.164 53.8632C451.508 53.7352 459.828 60.9032 456.884 74.7272C454.452 87.0152 444.084 90.9832 439.732 84.4552C439.476 84.0712 439.092 83.6872 439.22 84.1992C439.348 89.7032 444.212 93.5432 448.18 93.2872C453.94 92.9032 458.036 86.1192 459.956 76.5192C460.34 74.8552 464.692 75.4952 464.436 77.2872C463.028 90.5992 457.268 114.791 439.348 114.023ZM444.852 62.3112C441.524 63.8472 438.964 75.6232 440.372 76.9032C443.444 79.5912 449.46 60.0072 444.852 62.3112ZM475.133 114.023C460.797 113.511 453.373 96.6152 454.397 81.7672C455.421 67.5592 463.997 53.9912 477.949 53.8632C487.293 53.7352 495.613 60.9032 492.669 74.7272C490.237 87.0152 479.869 90.9832 475.517 84.4552C475.261 84.0712 474.877 83.6872 475.005 84.1992C475.133 89.7032 479.997 93.5432 483.965 93.2872C489.725 92.9032 493.821 86.1192 495.741 76.5192C496.125 74.8552 500.477 75.4952 500.221 77.2872C498.813 90.5992 493.053 114.791 475.133 114.023ZM480.637 62.3112C477.309 63.8472 474.749 75.6232 476.157 76.9032C479.229 79.5912 485.245 60.0072 480.637 62.3112ZM556.486 33.5112C542.918 34.2792 540.102 70.8872 540.614 87.2712C540.998 97.5112 545.478 89.8312 547.782 76.2632C548.166 74.2152 553.286 74.7272 552.774 77.2872C549.702 92.2632 547.526 113.895 536.262 113.895C522.054 113.895 523.462 94.9512 523.462 88.9352C523.462 88.5512 522.694 88.4232 522.566 88.9352C520.774 98.5352 517.574 115.303 503.494 114.023C478.662 111.847 487.622 48.1032 516.422 54.8872C518.854 55.3992 521.798 57.7032 523.334 61.9272C523.462 48.8712 524.358 38.8872 526.79 32.4872C533.19 15.0792 556.102 18.2792 556.486 33.5112ZM509.894 91.2392C513.862 94.4392 520.902 63.2072 516.934 63.5912C511.302 63.9752 506.566 88.4232 509.894 91.2392Z" fill="black"/>
<path id="Hero_4" d="M43.7709 134.528H43.1309C15.8669 134.528 1.40287 113.152 1.40287 93.312C1.40287 77.952 10.1069 63.488 28.5389 60.672C29.9469 60.416 31.3549 60.288 32.7629 60.288C43.7709 60.288 53.6269 66.816 54.6509 77.568L54.7789 79.872C54.7789 90.88 46.5869 96.768 38.3949 96.768C32.5069 96.768 26.4909 93.568 23.6749 87.04C22.7789 85.12 22.3949 83.072 22.3949 80.896C22.3949 76.8 23.9309 72.576 26.8749 69.632C20.3469 71.936 17.1469 78.08 17.1469 84.608C17.1469 85.76 17.2749 86.784 17.4029 87.936C19.1949 98.688 28.9229 104.96 38.7789 104.96C42.6189 104.96 46.5869 103.936 50.0429 101.76C60.7949 94.976 65.6589 77.696 65.6589 60.928C65.6589 54.912 65.0189 49.152 63.8669 43.776C56.9549 49.664 50.4269 51.84 44.6669 51.84C34.9389 51.84 27.6429 45.312 25.7229 39.168C24.9549 36.864 24.6989 34.56 24.6989 32.512C24.6989 20.736 35.1949 12.8 47.0989 12.8C55.2909 12.8 64.2509 16.512 70.9069 25.088C80.3789 18.304 92.5389 9.088 105.083 9.088H105.851C115.195 9.216 122.619 14.336 125.563 21.12C126.587 23.552 127.099 26.112 127.099 28.8C127.227 47.488 104.955 55.04 97.0189 42.368C100.859 41.6 102.267 31.104 92.2829 30.208C87.5469 29.824 81.9149 31.744 76.1549 35.2C81.6589 45.952 84.9869 59.904 85.7549 72.064C92.1549 71.168 98.8109 68.864 103.803 67.584L104.955 67.456C108.667 67.456 110.459 72.576 110.459 78.08C110.459 83.968 108.283 89.984 103.803 89.984H103.163C97.4029 89.216 90.3629 86.784 86.0109 85.76C84.3469 110.72 70.6509 134.144 43.7709 134.528ZM55.6749 31.744C56.9549 31.744 58.3629 31.616 59.8989 31.232C56.8269 24.704 52.2189 22.4 48.8909 22.4C46.3309 22.4 44.5389 23.68 44.5389 25.472C44.5389 26.112 44.7949 26.752 45.3069 27.52C46.8429 29.44 50.5549 31.744 55.6749 31.744ZM131.811 113.664C109.155 114.048 106.979 94.464 107.747 80.896C108.259 73.728 110.051 68.608 115.299 67.2C114.147 56.576 122.979 49.536 133.219 49.536C144.739 49.664 154.979 55.168 154.339 77.44C156.515 77.696 160.227 75.264 160.867 72.576C161.251 70.656 166.883 71.296 166.755 73.6C166.627 80 160.227 87.04 153.827 87.68C152.291 100.992 148.067 113.28 131.811 113.664ZM133.603 60.16C131.043 60.928 129.123 75.52 137.187 76.16C137.955 63.36 135.139 59.776 133.603 60.16ZM130.531 85.504C129.251 102.016 136.163 100.608 136.419 87.04C133.987 86.784 132.323 86.272 130.531 85.504ZM176.471 113.664C153.815 114.048 151.639 94.464 152.407 80.896C152.919 73.728 154.711 68.608 159.959 67.2C158.807 56.576 167.639 49.536 177.879 49.536C189.399 49.664 199.639 55.168 198.999 77.44C201.175 77.696 204.887 75.264 205.527 72.576C205.911 70.656 211.543 71.296 211.415 73.6C211.287 80 204.887 87.04 198.487 87.68C196.951 100.992 192.727 113.28 176.471 113.664ZM178.263 60.16C175.703 60.928 173.783 75.52 181.847 76.16C182.615 63.36 179.799 59.776 178.263 60.16ZM175.191 85.504C173.911 102.016 180.823 100.608 181.079 87.04C178.647 86.784 176.983 86.272 175.191 85.504ZM264.011 31.104C250.443 31.872 247.627 68.48 248.139 84.864C248.523 95.104 253.003 87.424 255.307 73.856C255.691 71.808 260.811 72.32 260.299 74.88C257.227 89.856 255.051 111.488 243.787 111.488C229.579 111.488 230.987 92.544 230.987 86.528C230.987 86.144 230.219 86.016 230.091 86.528C228.299 96.128 225.099 112.896 211.019 111.616C186.187 109.44 195.147 45.696 223.947 52.48C226.379 52.992 229.323 55.296 230.859 59.52C230.987 46.464 231.883 36.48 234.315 30.08C240.715 12.672 263.627 15.872 264.011 31.104ZM217.419 88.832C221.387 92.032 228.427 60.8 224.459 61.184C218.827 61.568 214.091 86.016 217.419 88.832ZM269.207 47.36C263.319 47.36 258.583 42.624 258.583 36.736C258.583 30.976 263.319 26.24 269.207 26.24C274.967 26.24 279.703 30.976 279.703 36.736C279.703 42.624 274.967 47.36 269.207 47.36ZM265.239 111.488C244.503 111.488 248.471 64.768 253.719 53.12C256.919 46.08 272.791 48.256 274.071 56.448C268.439 63.36 265.495 88.448 270.743 89.6C272.791 89.984 275.991 83.328 277.655 73.856C278.039 71.808 283.159 72.32 282.647 74.88C279.703 89.856 276.375 111.488 265.239 111.488ZM292.513 111.616C278.177 111.104 270.753 94.208 271.777 79.36C272.801 65.152 281.377 51.584 295.329 51.456C304.673 51.328 312.993 58.496 310.049 72.32C307.617 84.608 297.249 88.576 292.897 82.048C292.641 81.664 292.257 81.28 292.385 81.792C292.513 87.296 297.377 91.136 301.345 90.88C307.105 90.496 311.201 83.712 313.121 74.112C313.505 72.448 317.857 73.088 317.601 74.88C316.193 88.192 310.433 112.384 292.513 111.616ZM298.017 59.904C294.689 61.44 292.129 73.216 293.537 74.496C296.609 77.184 302.625 57.6 298.017 59.904ZM352.106 134.528H351.466C324.202 134.528 309.738 113.152 309.738 93.312C309.738 77.952 318.442 63.488 336.874 60.672C338.282 60.416 339.69 60.288 341.098 60.288C352.106 60.288 361.962 66.816 362.986 77.568L363.114 79.872C363.114 90.88 354.922 96.768 346.73 96.768C340.842 96.768 334.826 93.568 332.01 87.04C331.114 85.12 330.73 83.072 330.73 80.896C330.73 76.8 332.266 72.576 335.21 69.632C328.682 71.936 325.482 78.08 325.482 84.608C325.482 85.76 325.61 86.784 325.738 87.936C327.53 98.688 337.258 104.96 347.114 104.96C350.954 104.96 354.922 103.936 358.378 101.76C369.13 94.976 373.994 77.696 373.994 60.928C373.994 54.912 373.354 49.152 372.202 43.776C365.29 49.664 358.762 51.84 353.002 51.84C343.274 51.84 335.978 45.312 334.058 39.168C333.29 36.864 333.034 34.56 333.034 32.512C333.034 20.736 343.53 12.8 355.434 12.8C363.626 12.8 372.586 16.512 379.242 25.088C388.714 18.304 400.874 9.088 413.418 9.088H414.186C423.53 9.216 430.954 14.336 433.898 21.12C434.922 23.552 435.434 26.112 435.434 28.8C435.562 47.488 413.29 55.04 405.354 42.368C409.194 41.6 410.602 31.104 400.618 30.208C395.882 29.824 390.25 31.744 384.49 35.2C389.994 45.952 393.322 59.904 394.09 72.064C400.49 71.168 407.146 68.864 412.138 67.584L413.29 67.456C417.002 67.456 418.794 72.576 418.794 78.08C418.794 83.968 416.618 89.984 412.138 89.984H411.498C405.738 89.216 398.698 86.784 394.346 85.76C392.682 110.72 378.986 134.144 352.106 134.528ZM364.01 31.744C365.29 31.744 366.698 31.616 368.234 31.232C365.162 24.704 360.554 22.4 357.226 22.4C354.666 22.4 352.874 23.68 352.874 25.472C352.874 26.112 353.13 26.752 353.642 27.52C355.178 29.44 358.89 31.744 364.01 31.744ZM437.458 111.616C423.122 111.104 415.698 94.208 416.722 79.36C417.746 65.152 426.322 51.584 440.274 51.456C449.618 51.328 457.938 58.496 454.994 72.32C452.562 84.608 442.194 88.576 437.842 82.048C437.586 81.664 437.202 81.28 437.33 81.792C437.458 87.296 442.322 91.136 446.29 90.88C452.05 90.496 456.146 83.712 458.066 74.112C458.45 72.448 462.802 73.088 462.546 74.88C461.138 88.192 455.378 112.384 437.458 111.616ZM442.962 59.904C439.634 61.44 437.074 73.216 438.482 74.496C441.554 77.184 447.57 57.6 442.962 59.904ZM473.243 111.616C458.907 111.104 451.483 94.208 452.507 79.36C453.531 65.152 462.107 51.584 476.059 51.456C485.403 51.328 493.723 58.496 490.779 72.32C488.347 84.608 477.979 88.576 473.627 82.048C473.371 81.664 472.987 81.28 473.115 81.792C473.243 87.296 478.107 91.136 482.075 90.88C487.835 90.496 491.931 83.712 493.851 74.112C494.235 72.448 498.587 73.088 498.331 74.88C496.923 88.192 491.163 112.384 473.243 111.616ZM478.747 59.904C475.419 61.44 472.859 73.216 474.267 74.496C477.339 77.184 483.355 57.6 478.747 59.904ZM554.596 31.104C541.028 31.872 538.212 68.48 538.724 84.864C539.108 95.104 543.588 87.424 545.892 73.856C546.276 71.808 551.396 72.32 550.884 74.88C547.812 89.856 545.636 111.488 534.372 111.488C520.164 111.488 521.572 92.544 521.572 86.528C521.572 86.144 520.804 86.016 520.676 86.528C518.884 96.128 515.684 112.896 501.604 111.616C476.772 109.44 485.732 45.696 514.532 52.48C516.964 52.992 519.908 55.296 521.444 59.52C521.572 46.464 522.468 36.48 524.9 30.08C531.3 12.672 554.212 15.872 554.596 31.104ZM508.004 88.832C511.972 92.032 519.012 60.8 515.044 61.184C509.412 61.568 504.676 86.016 508.004 88.832Z" fill="#EB6347"/>
</g>
</g>
</g>
</svg>
